<?xml version="1.0" encoding="utf-8"?>
<!-- Generator: Adobe Illustrator 16.0.4, SVG Export Plug-In . SVG Version: 6.00 Build 0)  -->
<!DOCTYPE svg PUBLIC "-//W3C//DTD SVG 1.1//EN" "http://www.w3.org/Graphics/SVG/1.1/DTD/svg11.dtd">
<svg version="1.1" id="Layer_1" xmlns="http://www.w3.org/2000/svg" xmlns:xlink="http://www.w3.org/1999/xlink" x="0px" y="0px"
	 width="100px" height="100px" viewBox="0 0 100 100" enable-background="new 0 0 100 100" xml:space="preserve">
<path fill="#FFFFFF" d="M85.65,46.792h-7.615V26.275c0-2.259-0.336-8.12-3.439-13.723C71.627,7.198,65.415,0.817,52.667,0.817
	c-12.747,0-18.96,6.381-21.927,11.735c-3.105,5.604-3.441,11.463-3.441,13.723v20.518H21.54c-2.905,0-5.26,2.354-5.26,5.258v41.871
	c0,2.906,2.355,5.26,5.26,5.26h64.11c2.904,0,5.26-2.354,5.26-5.26V52.051C90.91,49.146,88.555,46.792,85.65,46.792z M37.482,26.275
	c0-4.593,1.48-15.275,15.185-15.275s15.187,10.682,15.187,15.274v20.518H37.483L37.482,26.275L37.482,26.275z M45.358,89.152
	L34.527,76.955l6.175-5.436l4.753,5.396L66.604,56.82l6.059,7.08L45.358,89.152z"/>
</svg>
