<?xml version="1.0" encoding="utf-8"?>
<!-- Generator: Adobe Illustrator 16.0.4, SVG Export Plug-In . SVG Version: 6.00 Build 0)  -->
<!DOCTYPE svg PUBLIC "-//W3C//DTD SVG 1.1//EN" "http://www.w3.org/Graphics/SVG/1.1/DTD/svg11.dtd">
<svg version="1.1" id="Layer_1" xmlns="http://www.w3.org/2000/svg" xmlns:xlink="http://www.w3.org/1999/xlink" x="0px" y="0px"
	 width="50px" height="40px" viewBox="0 0 50 40" enable-background="new 0 0 50 40" xml:space="preserve">
<path fill="#FFFFFF" d="M34.943,36.641c-0.832,0-2.324,0-4.082,0c0.025-0.219,0.064-0.432,0.064-0.656v-3.344
	c1.682,0,3.129,0,4.018,0c4.418,0,7.998-3.582,7.998-7.998c0-4.417-3.58-8-7.998-8c-1.23,0-2.389,0.289-3.428,0.788l-1.619-1.618
	c-1.855-4.217-6.047-7.169-10.953-7.169c-6.627,0-11.998,5.371-11.998,11.998c0,6.622,5.363,11.989,11.982,11.999v3.344
	c0,0.227,0.042,0.438,0.066,0.656c-0.016,0-0.035,0-0.051,0c-8.836,0-15.998-7.162-15.998-15.999
	c0-8.835,7.162-15.998,15.998-15.998c6.004,0,11.229,3.312,13.965,8.204c0.664-0.114,1.337-0.205,2.031-0.205
	c6.627,0,11.998,5.372,11.998,12C46.941,31.268,41.57,36.641,34.943,36.641z M17.859,26.398c-0.781-0.779-0.781-2.047,0-2.826
	l5.656-5.657c0.78-0.781,2.047-0.781,2.828,0l5.655,5.657c0.781,0.779,0.781,2.047,0,2.826c-0.78,0.781-2.047,0.781-2.827,0
	l-2.243-2.242v11.828c0,1.104-0.896,2-1.999,2c-1.105,0-2-0.896-2-2V24.156l-2.242,2.242C19.906,27.18,18.64,27.18,17.859,26.398z"
	/>
</svg>
